:SAMPLES-PER-SECOND 30
:FULLY-SPECIFIED
:DEGREES
756
root  20.6329 39.5581 29.3676 179.089 -23.506 179.379
RightUpLeg  -17.8169 -7.08416 -0.552564
RightLeg  13.5133 4.02966 1.12303
RightFoot  -4.71324 -0.520445 8.41692
RightToes  2.91037e-010 0 -3.6325e-017
Spine  12.4161 -3.17481 -6.1742
Spine1  4.90135 -4.64026 3.15866
HEad  -22.4515 6.53829 7.31421
LeftShoulder1  0.0491079 3.37269 -31.2873
LeftArm  0.0452332 -0.894084 -43.2024
LeftForeArm  12.6431 -17.3559 -5.59096
LeftHand  -0.0678559 3.02397 2.60631
RightShoulder  -0.762814 -5.76638 27.0824
RightArm  14.1375 -20.6284 50.3473
RightForeArm  12.1994 16.4199 4.93483
RightHand  -0.273825 1.00239 -5.05748
LeftUpLeg  3.46984 9.72733 3.36369
LeftLeg  8.53603 0.882305 -2.07686
LeftFoot  -11.8211 0.0671711 -0.844452
LeftToes  -7.53974e-010 3.3384e-011 -1.25048e-011
757
root  21.0594 39.5477 29.5404 178.8 -22.6652 179.573
RightUpLeg  -18.2028 -6.64538 -2.50324
RightLeg  16.2611 3.70916 1.00757
RightFoot  -4.7522 -0.47349 7.65479
RightToes  2.91037e-010 0 -3.6325e-017
Spine  12.7541 -3.08524 -6.72786
Spine1  5.38179 -4.97456 4.47267
HEad  -23.5409 7.10833 6.9632
LeftShoulder1  0.0275261 3.43087 -31.8366
LeftArm  -3.61104 0.0897577 -43.2299
LeftForeArm  16.977 -10.5859 -7.69775
LeftHand  -0.0366375 3.23935 1.09668
RightShoulder  -0.773768 -5.78362 27.3089
RightArm  14.8808 -20.4241 50.174
RightForeArm  12.9169 16.0973 5.10249
RightHand  -0.241852 0.508625 -4.82997
LeftUpLeg  2.87644 9.85003 3.89224
LeftLeg  9.2525 1.44722 -1.7687
LeftFoot  -11.5175 0.0676193 -1.05831
LeftToes  -7.53974e-010 3.3384e-011 -1.25048e-011
758
root  21.4833 39.5317 29.6279 178.686 -21.7875 179.442
RightUpLeg  -18.4862 -6.05547 -5.08108
RightLeg  19.1026 3.32854 1.07728
RightFoot  -4.7509 -0.389542 6.19692
RightToes  2.91037e-010 0 -3.6325e-017
Spine  12.9118 -2.98848 -7.04579
Spine1  5.76873 -5.11716 5.07094
HEad  -23.9188 7.31781 6.67279
LeftShoulder1  -0.0462936 3.6251 -32.2007
LeftArm  -4.78923 1.3462 -43.2371
LeftForeArm  21.7754 -5.20338 -8.38122
LeftHand  -0.0275912 4.69792 -0.462747
RightShoulder  -0.789121 -5.81934 27.4517
RightArm  14.4919 -20.2442 49.3392
RightForeArm  12.2203 15.9669 5.0796
RightHand  -0.241183 0.730663 -4.72471
LeftUpLeg  2.59406 9.97928 4.2713
LeftLeg  9.55226 2.13925 -1.57102
LeftFoot  -11.1769 0.0692128 -1.56795
LeftToes  -7.53974e-010 3.3384e-011 -1.25048e-011
759
root  21.8462 39.4909 29.6033 178.61 -20.9292 178.983
RightUpLeg  -18.0165 -5.64298 -8.13081
RightLeg  20.936 2.87216 1.00489
RightFoot  -4.8944 -0.386209 6.262
RightToes  2.91037e-010 0 -3.6325e-017
Spine  12.7175 -2.89152 -6.8599
Spine1  6.04513 -5.01344 4.90272
HEad  -23.5428 6.18532 6.72079
LeftShoulder1  0.0377156 3.40565 -32.3866
LeftArm  -4.93304 3.7317 -43.4309
LeftForeArm  28.4537 -2.16226 -8.0912
LeftHand  -0.0433155 5.76387 -3.31899
RightShoulder  -0.755664 -5.74188 27.1165
RightArm  12.4006 -20.0714 48.493
RightForeArm  12.2337 15.2487 4.89913
RightHand  -0.110917 1.52271 -2.02379
LeftUpLeg  2.80157 10.1483 4.49148
LeftLeg  9.59125 2.51698 -1.6523
LeftFoot  -11.0566 0.0715808 -2.11774
LeftToes  -7.53974e-010 3.3384e-011 -1.25048e-011
760
root  22.2249 39.4548 29.5141 178.799 -20.2154 178.726
RightUpLeg  -17.2925 -5.08259 -10.8475
RightLeg  21.2978 2.02384 0.66332
RightFoot  -4.60257 -0.356299 5.51318
RightToes  2.91037e-010 0 -3.6325e-017
Spine  12.0609 -2.92696 -5.65123
Spine1  6.36896 -4.68769 3.72673
HEad  -22.9108 5.70954 6.62909
LeftShoulder1  0.101797 3.23851 -32.2374
LeftArm  -4.95562 6.39826 -43.3814
LeftForeArm  34.7809 -1.00225 -8.06893
LeftHand  -0.0336887 5.41164 -5.61746
RightShoulder  -0.851307 -6.00403 27.4559
RightArm  11.5635 -19.377 46.8939
RightForeArm  10.2648 14.9505 4.82498
RightHand  -0.245735 0.580038 -4.83899
LeftUpLeg  2.58721 10.2635 4.82394
LeftLeg  9.81806 2.95483 -1.55197
LeftFoot  -10.8249 0.0762174 -2.50242
LeftToes  -7.53974e-010 3.3384e-011 -1.25048e-011
761
root  22.6396 39.4154 29.3731 178.842 -19.2025 178.469
RightUpLeg  -15.9556 -3.93196 -13.3968
RightLeg  20.2451 1.38276 0.358238
RightFoot  -4.46083 -0.316637 4.75634
RightToes  2.91037e-010 0 -3.6325e-017
Spine  11.9644 -2.56826 -4.77248
Spine1  6.20472 -4.18916 3.46719
HEad  -22.4121 4.71478 6.5235
LeftShoulder1  0.125075 3.17895 -32.437
LeftArm  -5.09599 9.58371 -43.0713
LeftForeArm  39.0003 -1.62658 -8.03623
LeftHand  -0.00446672 4.9768 -8.1875
RightShoulder  -0.841284 -6.00563 27.0249
RightArm  9.57158 -18.6031 45.6287
RightForeArm  9.58131 14.3887 4.51079
RightHand  -0.187579 0.655509 -3.69706
LeftUpLeg  2.68705 10.3802 5.23992
LeftLeg  9.94584 3.75105 -1.35307
LeftFoot  -10.5578 0.0836104 -2.97284
LeftToes  -7.53974e-010 3.3384e-011 -1.25048e-011
